<svg width="500" height="500" viewBox="0 0 500 500" xmlns="http://www.w3.org/2000/svg" version="1.1"
xmlns:xlink="http://www.w3.org/1999/xlink">

<defs>
    <symbol id="semi">
        <path id="oi" d="
            M 100 0 
            a 100 100 0 0 0 -100 100
            v 120
            a 100 100 0 0 0 100 100
            v -60
            a 40 40 0 0 1 -40 -40
            v -120
            a 40 40 0 0 1 40 -40
            v -60
            " 
            stroke="#00a4e6" stroke-width="0" fill="#00a4e6"/>
        <path d="
            m 100 10
            a 90 90 0 0 0 -90 90
            v 120
            a 90 90 0 0 0 90 90
            v -40
            a 50 50 0 0 1 -50 -50
            v -120
            a 50 50 0 0 1 50 -50
            v -40
            "
            stroke="red" stroke-width="0" fill="white"/>
    </symbol> 
</defs>
<g transform="translate(350, -30)">
<g transform="rotate(45)">
<use xlink:href="#semi" x="-40" transform="translate(200 0) scale(-1 1)"/>
<use xlink:href="#semi" x="0" y="180"/>
<use xlink:href="#semi" y="180" transform="translate(200 0) scale(-1 1)"/>
<use xlink:href="#semi" x="40" y="0"/>
</g>
</g>
</svg>
